<svg width="24" height="25" viewBox="0 0 24 25" fill="none" xmlns="http://www.w3.org/2000/svg">
<path d="M5.29289 5.99291C5.68342 5.60238 6.31658 5.60238 6.70711 5.99291L12 11.2858L17.2929 5.99291C17.6834 5.60238 18.3166 5.60238 18.7071 5.99291C19.0976 6.38343 19.0976 7.01659 18.7071 7.40712L13.4142 12.7L18.7071 17.9929C19.0976 18.3834 19.0976 19.0166 18.7071 19.4071C18.3166 19.7976 17.6834 19.7976 17.2929 19.4071L12 14.1142L6.70711 19.4071C6.31658 19.7976 5.68342 19.7976 5.29289 19.4071C4.90237 19.0166 4.90237 18.3834 5.29289 17.9929L10.5858 12.7L5.29289 7.40712C4.90237 7.01659 4.90237 6.38343 5.29289 5.99291Z" fill="#0D0D0D"/>
</svg>
