<svg width="274" height="45" viewBox="0 0 274 45" fill="none" xmlns="http://www.w3.org/2000/svg">
<rect y="0.699951" width="274" height="44" rx="22" fill="black"/>
<path d="M30.0001 28.6999L27.1335 25.8333M28.6667 22.0333C28.6667 24.9788 26.2789 27.3666 23.3333 27.3666C20.3878 27.3666 18 24.9788 18 22.0333C18 19.0878 20.3878 16.7 23.3333 16.7C26.2789 16.7 28.6667 19.0878 28.6667 22.0333Z" stroke="#F4EEE2" stroke-width="1.2" stroke-linecap="round" stroke-linejoin="round"/>
<path d="M40.69 27.826C39.4767 27.826 38.506 27.5366 37.778 26.958C37.05 26.3793 36.6253 25.5533 36.504 24.48H37.946C38.03 25.18 38.31 25.712 38.786 26.076C39.262 26.44 39.906 26.622 40.718 26.622C41.3993 26.622 41.9127 26.496 42.258 26.244C42.6127 25.992 42.79 25.6326 42.79 25.166C42.79 24.746 42.6733 24.4146 42.44 24.172C42.2067 23.92 41.838 23.7146 41.334 23.556L39.584 22.996C38.688 22.7066 38.03 22.3426 37.61 21.904C37.19 21.4653 36.98 20.91 36.98 20.238C36.98 19.6686 37.12 19.1786 37.4 18.768C37.6893 18.3573 38.0907 18.04 38.604 17.816C39.1267 17.5826 39.7333 17.466 40.424 17.466C41.488 17.466 42.3373 17.7366 42.972 18.278C43.616 18.81 43.9847 19.552 44.078 20.504H42.636C42.524 19.8693 42.2813 19.4073 41.908 19.118C41.5347 18.8193 41.0213 18.67 40.368 18.67C39.752 18.67 39.2713 18.7913 38.926 19.034C38.5807 19.2766 38.408 19.6173 38.408 20.056C38.408 20.4106 38.52 20.7093 38.744 20.952C38.9773 21.1853 39.36 21.386 39.892 21.554L41.726 22.142C42.5753 22.4126 43.2007 22.7813 43.602 23.248C44.0127 23.7146 44.218 24.3026 44.218 25.012C44.218 25.908 43.91 26.6033 43.294 27.098C42.678 27.5833 41.81 27.826 40.69 27.826ZM48.7973 27.84C48.0786 27.84 47.444 27.6813 46.8933 27.364C46.352 27.0466 45.9273 26.608 45.6193 26.048C45.3113 25.488 45.1573 24.844 45.1573 24.116C45.1573 23.3786 45.3066 22.7346 45.6053 22.184C45.9133 21.624 46.3426 21.19 46.8933 20.882C47.444 20.574 48.074 20.42 48.7833 20.42C49.474 20.42 50.0713 20.5693 50.5753 20.868C51.0886 21.1573 51.4806 21.5633 51.7513 22.086C52.0313 22.6086 52.1713 23.2293 52.1713 23.948C52.1713 24.06 52.1666 24.1673 52.1573 24.27C52.1573 24.3633 52.148 24.4613 52.1293 24.564H46.1373V23.472H51.1073L50.7433 23.906C50.7433 23.1406 50.5706 22.5573 50.2253 22.156C49.88 21.7546 49.3993 21.554 48.7833 21.554C48.1206 21.554 47.5933 21.7826 47.2013 22.24C46.8186 22.688 46.6273 23.3133 46.6273 24.116C46.6273 24.928 46.8186 25.5626 47.2013 26.02C47.5933 26.4773 48.1346 26.706 48.8253 26.706C49.2453 26.706 49.6093 26.622 49.9173 26.454C50.2253 26.2766 50.454 26.02 50.6033 25.684H51.9753C51.742 26.356 51.3453 26.8833 50.7853 27.266C50.2346 27.6486 49.572 27.84 48.7973 27.84ZM58.0026 27.7C57.956 27.5226 57.9233 27.3266 57.9046 27.112C57.8953 26.8973 57.8906 26.636 57.8906 26.328H57.8206V22.926C57.8206 22.4686 57.704 22.128 57.4706 21.904C57.2466 21.6706 56.8873 21.554 56.3926 21.554C55.9166 21.554 55.534 21.6473 55.2446 21.834C54.9646 22.0206 54.8013 22.2866 54.7546 22.632H53.3686C53.434 21.96 53.7373 21.4233 54.2786 21.022C54.82 20.6206 55.5433 20.42 56.4486 20.42C57.382 20.42 58.082 20.6393 58.5486 21.078C59.0153 21.5073 59.2486 22.142 59.2486 22.982V26.328C59.2486 26.5426 59.2626 26.762 59.2906 26.986C59.3186 27.21 59.3606 27.448 59.4166 27.7H58.0026ZM55.5386 27.84C54.8106 27.84 54.232 27.6626 53.8026 27.308C53.3733 26.944 53.1586 26.454 53.1586 25.838C53.1586 25.2033 53.3826 24.704 53.8306 24.34C54.288 23.9666 54.9413 23.7146 55.7906 23.584L58.1426 23.206V24.228L56.0146 24.564C55.5386 24.6386 55.1793 24.7646 54.9366 24.942C54.7033 25.1193 54.5866 25.376 54.5866 25.712C54.5866 26.0386 54.694 26.286 54.9086 26.454C55.1326 26.6126 55.4546 26.692 55.8746 26.692C56.4346 26.692 56.8966 26.5566 57.2606 26.286C57.634 26.0153 57.8206 25.6746 57.8206 25.264L58.0026 26.3C57.8346 26.7946 57.536 27.1773 57.1066 27.448C56.6773 27.7093 56.1546 27.84 55.5386 27.84ZM61.2212 27.7V20.56H62.6072V22.338H62.6772V27.7H61.2212ZM62.6772 23.976L62.4952 22.282C62.6632 21.6753 62.9526 21.2133 63.3632 20.896C63.7739 20.5786 64.2639 20.42 64.8332 20.42C65.0479 20.42 65.1972 20.4386 65.2812 20.476V21.848C65.2346 21.8293 65.1692 21.82 65.0852 21.82C65.0012 21.8106 64.8986 21.806 64.7772 21.806C64.0772 21.806 63.5499 21.988 63.1952 22.352C62.8499 22.716 62.6772 23.2573 62.6772 23.976ZM69.3435 27.84C68.6622 27.84 68.0555 27.6813 67.5235 27.364C66.9915 27.0373 66.5715 26.594 66.2635 26.034C65.9648 25.474 65.8155 24.8346 65.8155 24.116C65.8155 23.3973 65.9648 22.7626 66.2635 22.212C66.5715 21.652 66.9915 21.2133 67.5235 20.896C68.0555 20.5786 68.6575 20.42 69.3295 20.42C69.8988 20.42 70.4075 20.5273 70.8555 20.742C71.3035 20.9566 71.6722 21.2553 71.9615 21.638C72.2508 22.0206 72.4375 22.4733 72.5215 22.996H71.1495C71.0562 22.576 70.8508 22.24 70.5335 21.988C70.2255 21.736 69.8335 21.61 69.3575 21.61C68.9468 21.61 68.5875 21.7126 68.2795 21.918C67.9715 22.1233 67.7335 22.4126 67.5655 22.786C67.3975 23.1593 67.3135 23.6026 67.3135 24.116C67.3135 24.62 67.3975 25.0633 67.5655 25.446C67.7335 25.8286 67.9715 26.1273 68.2795 26.342C68.5875 26.5473 68.9515 26.65 69.3715 26.65C69.8288 26.65 70.2162 26.5286 70.5335 26.286C70.8602 26.034 71.0702 25.698 71.1635 25.278H72.5355C72.4422 25.7913 72.2462 26.2393 71.9475 26.622C71.6582 27.0046 71.2895 27.3033 70.8415 27.518C70.3935 27.7326 69.8942 27.84 69.3435 27.84ZM73.9771 27.7V17.62H75.4331V27.7H73.9771ZM79.0451 27.7V23.108C79.0451 22.6133 78.9191 22.2446 78.6671 22.002C78.4244 21.7593 78.0604 21.638 77.5751 21.638C77.1551 21.638 76.7817 21.7313 76.4551 21.918C76.1377 22.1046 75.8857 22.3613 75.6991 22.688C75.5217 23.0146 75.4331 23.402 75.4331 23.85L75.2511 22.142C75.4844 21.61 75.8437 21.19 76.3291 20.882C76.8144 20.574 77.3791 20.42 78.0231 20.42C78.7884 20.42 79.3904 20.6346 79.8291 21.064C80.2677 21.4933 80.4871 22.0626 80.4871 22.772V27.7H79.0451Z" fill="#F4EEE2"/>
<path d="M254 18.7L246 26.7M246 18.7L254 26.7" stroke="#F4EEE2" stroke-width="1.2" stroke-linecap="round" stroke-linejoin="round"/>
</svg>
